<?xml version="1.0" encoding="UTF-8"?>
<!-- Generated by jsxcad -->
<!DOCTYPE svg PUBLIC "-//W3C//DTD SVG 1.1 Tiny//EN" "http://www.w3.org/Graphics/SVG/1.1/DTD/svg11-tiny.dtd">
<svg viewBox="-250 -250 500 500" width="500" height="500" xmlns="http://www.w3.org/2000/svg"><path d="M15.014278589136115,-33.98229924437785L5.54637784058208,-34.04849286865967L16.27767610590985,-30.049566422299023zM16.27767610590985,-30.049566422299023L6.265349440357563,-29.958151567294152L17.393985107555928,-25.96315964112389zM13.649179844349534,-37.618215988569084L5.098265558588569,-37.8040410543404L15.014278589136115,-33.98229924437785zM17.393985107555928,-25.96315964112389L7.226932564577204,-25.698416974982436L18.32298471996629,-21.870865308383415zM12.231638755694929,-40.82315077741126L4.937462999334366,-41.075236828075916L13.649179844349534,-37.618215988569084zM18.32298471996629,-21.870865308383415L8.392260880182636,-21.442893695517597L19.03076784514546,-17.920782653721083zM10.813361820128499,-43.47624472926083L5.068128181390254,-43.73491708778496L12.231638755694929,-40.82315077741126zM19.03076784514546,-17.920782653721083L9.713642263861866,-17.36513265641707L19.49078919986617,-14.256958613083114zM9.446935500309985,-45.474198385329736L5.482299276904968,-45.683383743694996L10.813361820128499,-43.47624472926083zM19.49078919986617,-14.256958613083114L11.136859454873319,-13.630359099554678L19.68477825958807,-11.014990026857326zM8.184095012421349,-46.73539805956005L6.160673079386278,-46.85177192238953L9.446935500309985,-45.474198385329736z" style="fill:rgb(247,158,158)"/><path d="M-17.514126272755284,-40.49364231318202L7.073875097590216,-47.203716587519956L-16.511640335237566,-40.868944988590215z" style="fill:rgb(93,250,135)"/><path d="M19.68477825958807,-11.014990026857326L12.603803899697862,-10.387784079645687L19.603523701719823,-8.31760618666663zM19.603523701719823,-8.31760618666663L14.055244936589327,-7.763985891307807L19.247459790854876,-6.270262610793709z" style="fill:rgb(247,158,158)"/><path d="M17.76284071682331,-4.435885629561548L-7.080893238078701,1.382951246051811L-5.915027420278959,1.6578046963440738z" style="fill:rgb(155,4,143)"/><path d="M19.247459790854876,-6.270262610793709L15.43355663012783,-5.85778801094602L18.627047611693598,-4.95687829533509zM6.160673079386278,-46.85177192238953L8.184095012421349,-46.73539805956005L7.073875097590216,-47.203716587519956z" style="fill:rgb(247,158,158)"/><path d="M7.073875097590216,-47.203716587519956L-17.514126272755284,-40.49364231318202L6.160673079386278,-46.85177192238953z" style="fill:rgb(93,250,135)"/><path d="M18.627047611693598,-4.95687829533509L16.685198564507743,-4.736826497543643L17.76284071682331,-4.435885629561548zM9.446935500309985,-45.474198385329736L6.160673079386278,-46.85177192238953L5.482299276904968,-45.683383743694996z" style="fill:rgb(247,158,158)"/><path d="M-18.280789114034658,-39.30732731368733L6.160673079386278,-46.85177192238953L-17.514126272755284,-40.49364231318202z" style="fill:rgb(89,244,159)"/><path d="M-7.080893238078701,1.382951246051811L17.76284071682331,-4.435885629561548L16.685198564507743,-4.736826497543643z" style="fill:rgb(155,4,143)"/><path d="M10.813361820128499,-43.47624472926083L5.482299276904968,-45.683383743694996L5.068128181390254,-43.73491708778496zM18.627047611693598,-4.95687829533509L15.43355663012783,-5.85778801094602L16.685198564507743,-4.736826497543643z" style="fill:rgb(247,158,158)"/><path d="M-7.080893238078701,1.382951246051811L15.43355663012783,-5.85778801094602L-8.41618009575605,0.2920028937058183z" style="fill:rgb(148,8,167)"/><path d="M12.231638755694929,-40.82315077741126L5.068128181390254,-43.73491708778496L4.937462999334366,-41.075236828075916z" style="fill:rgb(247,158,158)"/><path d="M15.43355663012783,-5.85778801094602L-7.080893238078701,1.382951246051811L16.685198564507743,-4.736826497543643z" style="fill:rgb(148,8,167)"/><path d="M6.160673079386278,-46.85177192238953L-18.280789114034658,-39.30732731368733L5.482299276904968,-45.683383743694996z" style="fill:rgb(89,244,159)"/><path d="M19.247459790854876,-6.270262610793709L14.055244936589327,-7.763985891307807L15.43355663012783,-5.85778801094602zM13.649179844349534,-37.618215988569084L4.937462999334366,-41.075236828075916L5.098265558588569,-37.8040410543404z" style="fill:rgb(247,158,158)"/><path d="M8.846258127868373,-37.82650887735054L69.60234546623776,-54.083081615577335L9.36206190698852,-38.04840887565709z" style="fill:rgb(93,250,135)"/><path d="M19.603523701719823,-8.31760618666663L12.603803899697862,-10.387784079645687L14.055244936589327,-7.763985891307807zM15.014278589136115,-33.98229924437785L5.098265558588569,-37.8040410543404L5.54637784058208,-34.04849286865967z" style="fill:rgb(247,158,158)"/><path d="M5.068128181390254,-43.73491708778496L-18.280789114034658,-39.30732731368733L-18.778795856116613,-37.347180479070616z" style="fill:rgb(85,234,182)"/><path d="M75.84591901598937,-29.293001890171286L14.85022076649962,-13.802287986064618L15.470041097366153,-13.609655507539907z" style="fill:rgb(155,4,143)"/><path d="M19.68477825958807,-11.014990026857326L11.136859454873319,-13.630359099554678L12.603803899697862,-10.387784079645687zM16.27767610590985,-30.049566422299023L5.54637784058208,-34.04849286865967L6.265349440357563,-29.958151567294152z" style="fill:rgb(247,158,158)"/><path d="M-18.280789114034658,-39.30732731368733L5.068128181390254,-43.73491708778496L5.482299276904968,-45.683383743694996z" style="fill:rgb(85,234,182)"/><path d="M-8.41618009575605,0.2920028937058183L14.055244936589327,-7.763985891307807L-9.870207998222986,-1.5813457910039759z" style="fill:rgb(140,16,189)"/><path d="M19.49078919986617,-14.256958613083114L9.713642263861866,-17.36513265641707L11.136859454873319,-13.630359099554678zM17.393985107555928,-25.96315964112389L6.265349440357563,-29.958151567294152L7.226932564577204,-25.698416974982436zM19.03076784514546,-17.920782653721083L8.392260880182636,-21.442893695517597L9.713642263861866,-17.36513265641707zM18.32298471996629,-21.870865308383415L7.226932564577204,-25.698416974982436L8.392260880182636,-21.442893695517597z" style="fill:rgb(247,158,158)"/><path d="M8.465826241313293,-37.140795055866974L69.21963699224915,-53.89534838905151L8.846258127868373,-37.82650887735054z" style="fill:rgb(89,244,159)"/><path d="M14.055244936589327,-7.763985891307807L-8.41618009575605,0.2920028937058183L15.43355663012783,-5.85778801094602z" style="fill:rgb(140,16,189)"/><path d="M14.85022076649962,-13.802287986064618L74.7645053995942,-30.227868541203154L14.133578181886348,-14.460383498852453z" style="fill:rgb(148,8,167)"/><path d="M4.937462999334366,-41.075236828075916L-18.778795856116613,-37.347180479070616L-18.985488224878086,-34.682633603491944zM-18.778795856116613,-37.347180479070616L4.937462999334366,-41.075236828075916L5.068128181390254,-43.73491708778496z" style="fill:rgb(84,220,202)"/><path d="M-9.870207998222986,-1.5813457910039759L12.603803899697862,-10.387784079645687L-11.386344369059463,-4.170702127906006z" style="fill:rgb(131,29,208)"/><path d="M68.86512080852044,-52.126990061492116L8.465826241313293,-37.140795055866974L8.236465393334885,-36.014867594182945z" style="fill:rgb(85,234,182)"/><path d="M73.57721996162806,-46.28111639602113L69.43413868599373,-46.59301627738247L74.2808365792902,-43.97384844382402zM74.2808365792902,-43.97384844382402L69.89588193266206,-44.25063668593751L74.92476343083368,-41.58169271608368zM72.8399604223777,-48.417577509505264L69.10091332006472,-48.740703928709465L73.57721996162806,-46.28111639602113zM74.92476343083368,-41.58169271608368L70.46806469704039,-41.80627984073361L75.48513362006922,-39.19340689556927z" style="fill:rgb(247,158,158)"/><path d="M69.60234546623776,-54.083081615577335L8.846258127868373,-37.82650887735054L69.21963699224915,-53.89534838905151z" style="fill:rgb(93,250,135)"/><path d="M12.603803899697862,-10.387784079645687L-9.870207998222986,-1.5813457910039759L14.055244936589327,-7.763985891307807z" style="fill:rgb(131,29,208)"/><path d="M-18.889801687426072,-31.413659247667308L4.937462999334366,-41.075236828075916L-18.985488224878086,-34.682633603491944z" style="fill:rgb(84,202,220)"/><path d="M14.133578181886348,-14.460383498852453L74.09029110581095,-31.37744137699114L13.34742027376832,-15.561314540441957z" style="fill:rgb(140,16,189)"/><path d="M72.09644009384236,-50.3030442718639L68.90893899187589,-50.60945715497925L72.8399604223777,-48.417577509505264zM75.48513362006922,-39.19340689556927L71.12802474945744,-39.35714758604492L75.9410832407894,-36.8976549234674zM71.37447332340446,-51.86586353792672L68.86512080852044,-52.126990061492116L72.09644009384236,-50.3030442718639zM75.9410832407894,-36.8976549234674L71.84945264802357,-37.000672896458255L76.27541507039778,-34.780051823589595z" style="fill:rgb(247,158,158)"/><path d="M14.85022076649962,-13.802287986064618L75.84591901598937,-29.293001890171286L75.35718782999325,-29.524954179020845z" style="fill:rgb(155,4,143)"/><path d="M70.70136496538773,-53.0455257467779L68.97036094950201,-53.23581620317381L71.37447332340446,-51.86586353792672zM76.27541507039778,-34.780051823589595L72.60359195899012,-34.83027140294925L76.47522861122312,-32.92026186553966z" style="fill:rgb(247,158,158)"/><path d="M68.90893899187589,-50.60945715497925L8.236465393334885,-36.014867594182945L8.168083159303787,-34.490090291555255z" style="fill:rgb(84,220,202)"/><path d="M-11.386344369059463,-4.170702127906006L11.136859454873319,-13.630359099554678L-12.90427200053176,-7.3786005560985695z" style="fill:rgb(123,46,225)"/><path d="M76.47522861122312,-32.92026186553966L73.36049356432981,-32.93128666281008L76.53242474841637,-31.389210950253542zM70.10288816912359,-53.79505932915405L69.21963699224915,-53.89534838905151L70.70136496538773,-53.0455257467779z" style="fill:rgb(247,158,158)"/><path d="M13.34742027376832,-15.561314540441957L73.36049356432981,-32.93128666281008L12.522159947948024,-17.06455300436812z" style="fill:rgb(131,29,208)"/><path d="M74.7645053995942,-30.227868541203154L14.85022076649962,-13.802287986064618L75.35718782999325,-29.524954179020845z" style="fill:rgb(148,8,167)"/><path d="M69.21963699224915,-53.89534838905151L8.465826241313293,-37.140795055866974L68.97036094950201,-53.23581620317381z" style="fill:rgb(89,244,159)"/><path d="M8.264249978442146,-32.624288502383656L68.90893899187589,-50.60945715497925L8.168083159303787,-34.490090291555255z" style="fill:rgb(84,202,220)"/><path d="M76.53242474841637,-31.389210950253542L74.09029110581095,-31.37744137699114L76.44406199957557,-30.246431933824173z" style="fill:rgb(247,158,158)"/><path d="M-18.493192165954383,-27.667379924512215L5.098265558588569,-37.8040410543404L-18.889801687426072,-31.413659247667308z" style="fill:rgb(85,182,234)"/><path d="M11.136859454873319,-13.630359099554678L-11.386344369059463,-4.170702127906006L12.603803899697862,-10.387784079645687z" style="fill:rgb(123,46,225)"/><path d="M4.937462999334366,-41.075236828075916L-18.889801687426072,-31.413659247667308L5.098265558588569,-37.8040410543404z" style="fill:rgb(84,202,220)"/><path d="M76.44406199957557,-30.246431933824173L74.7645053995942,-30.227868541203154L76.21259675575796,-29.537703917402286zM69.21963699224915,-53.89534838905151L70.10288816912359,-53.79505932915405L69.60234546623776,-54.083081615577335z" style="fill:rgb(247,158,158)"/><path d="M12.522159947948024,-17.06455300436812L72.60359195899012,-34.83027140294925L11.69012022218019,-18.91293721050801z" style="fill:rgb(123,46,225)"/><path d="M8.465826241313293,-37.140795055866974L68.86512080852044,-52.126990061492116L68.97036094950201,-53.23581620317381z" style="fill:rgb(85,234,182)"/><path d="M-12.90427200053176,-7.3786005560985695L9.713642263861866,-17.36513265641707L-14.362617769347668,-11.079873251684338z" style="fill:rgb(114,65,238)"/><path d="M8.521910570086073,-30.489673728069366L69.10091332006472,-48.740703928709465L8.264249978442146,-32.624288502383656z" style="fill:rgb(85,182,234)"/><path d="M76.21259675575796,-29.537703917402286L75.35718782999325,-29.524954179020845L75.84591901598937,-29.293001890171286zM70.70136496538773,-53.0455257467779L69.21963699224915,-53.89534838905151L68.97036094950201,-53.23581620317381z" style="fill:rgb(247,158,158)"/><path d="M74.09029110581095,-31.37744137699114L14.133578181886348,-14.460383498852453L74.7645053995942,-30.227868541203154z" style="fill:rgb(140,16,189)"/><path d="M11.69012022218019,-18.91293721050801L71.84945264802357,-37.000672896458255L10.884202229398372,-21.034764484948504z" style="fill:rgb(114,65,238)"/><path d="M6.265349440357563,-29.958151567294152L-18.493192165954383,-27.667379924512215L-17.809942248725232,-23.59298731120072z" style="fill:rgb(89,159,244)"/><path d="M71.37447332340446,-51.86586353792672L68.97036094950201,-53.23581620317381L68.86512080852044,-52.126990061492116z" style="fill:rgb(247,158,158)"/><path d="M-14.362617769347668,-11.079873251684338L8.392260880182636,-21.442893695517597L-15.701778277086706,-15.12671307144623z" style="fill:rgb(106,87,246)"/><path d="M9.713642263861866,-17.36513265641707L-12.90427200053176,-7.3786005560985695L11.136859454873319,-13.630359099554678z" style="fill:rgb(114,65,238)"/><path d="M5.098265558588569,-37.8040410543404L-18.493192165954383,-27.667379924512215L5.54637784058208,-34.04849286865967z" style="fill:rgb(85,182,234)"/><path d="M69.89588193266206,-44.25063668593751L8.521910570086073,-30.489673728069366L8.931402164036815,-28.169979749821476z" style="fill:rgb(89,159,244)"/><path d="M10.884202229398372,-21.034764484948504L71.12802474945744,-39.35714758604492L10.136477941391908,-23.346649353868294z" style="fill:rgb(106,87,246)"/><path d="M8.392260880182636,-21.442893695517597L-16.86677934487976,-19.355213504835476L-15.701778277086706,-15.12671307144623z" style="fill:rgb(99,111,250)"/><path d="M7.226932564577204,-25.698416974982436L-17.809942248725232,-23.59298731120072L-16.86677934487976,-19.355213504835476z" style="fill:rgb(93,135,250)"/><path d="M76.21259675575796,-29.537703917402286L74.7645053995942,-30.227868541203154L75.35718782999325,-29.524954179020845z" style="fill:rgb(247,158,158)"/><path d="M71.12802474945744,-39.35714758604492L9.476782834754776,-25.75700064469008L10.136477941391908,-23.346649353868294z" style="fill:rgb(99,111,250)"/><path d="M70.46806469704039,-41.80627984073361L8.931402164036815,-28.169979749821476L9.476782834754776,-25.75700064469008z" style="fill:rgb(93,135,250)"/><path d="M72.09644009384236,-50.3030442718639L68.86512080852044,-52.126990061492116L68.90893899187589,-50.60945715497925z" style="fill:rgb(247,158,158)"/><path d="M8.236465393334885,-36.014867594182945L68.90893899187589,-50.60945715497925L68.86512080852044,-52.126990061492116z" style="fill:rgb(84,220,202)"/><path d="M76.44406199957557,-30.246431933824173L74.09029110581095,-31.37744137699114L74.7645053995942,-30.227868541203154z" style="fill:rgb(247,158,158)"/><path d="M73.36049356432981,-32.93128666281008L13.34742027376832,-15.561314540441957L74.09029110581095,-31.37744137699114z" style="fill:rgb(131,29,208)"/><path d="M-18.493192165954383,-27.667379924512215L6.265349440357563,-29.958151567294152L5.54637784058208,-34.04849286865967z" style="fill:rgb(89,159,244)"/><path d="M72.8399604223777,-48.417577509505264L68.90893899187589,-50.60945715497925L69.10091332006472,-48.740703928709465z" style="fill:rgb(247,158,158)"/><path d="M8.392260880182636,-21.442893695517597L-14.362617769347668,-11.079873251684338L9.713642263861866,-17.36513265641707z" style="fill:rgb(106,87,246)"/><path d="M76.53242474841637,-31.389210950253542L73.36049356432981,-32.93128666281008L74.09029110581095,-31.37744137699114zM73.57721996162806,-46.28111639602113L69.10091332006472,-48.740703928709465L69.43413868599373,-46.59301627738247zM76.47522861122312,-32.92026186553966L72.60359195899012,-34.83027140294925L73.36049356432981,-32.93128666281008z" style="fill:rgb(247,158,158)"/><path d="M-17.809942248725232,-23.59298731120072L7.226932564577204,-25.698416974982436L6.265349440357563,-29.958151567294152z" style="fill:rgb(93,135,250)"/><path d="M74.2808365792902,-43.97384844382402L69.43413868599373,-46.59301627738247L69.89588193266206,-44.25063668593751z" style="fill:rgb(247,158,158)"/><path d="M-16.86677934487976,-19.355213504835476L8.392260880182636,-21.442893695517597L7.226932564577204,-25.698416974982436z" style="fill:rgb(99,111,250)"/><path d="M76.27541507039778,-34.780051823589595L71.84945264802357,-37.000672896458255L72.60359195899012,-34.83027140294925zM74.92476343083368,-41.58169271608368L69.89588193266206,-44.25063668593751L70.46806469704039,-41.80627984073361zM75.9410832407894,-36.8976549234674L71.12802474945744,-39.35714758604492L71.84945264802357,-37.000672896458255zM75.48513362006922,-39.19340689556927L70.46806469704039,-41.80627984073361L71.12802474945744,-39.35714758604492z" style="fill:rgb(247,158,158)"/><path d="M72.60359195899012,-34.83027140294925L12.522159947948024,-17.06455300436812L73.36049356432981,-32.93128666281008z" style="fill:rgb(123,46,225)"/><path d="M68.90893899187589,-50.60945715497925L8.264249978442146,-32.624288502383656L69.10091332006472,-48.740703928709465z" style="fill:rgb(84,202,220)"/><path d="M71.84945264802357,-37.000672896458255L11.69012022218019,-18.91293721050801L72.60359195899012,-34.83027140294925z" style="fill:rgb(114,65,238)"/><path d="M69.10091332006472,-48.740703928709465L8.521910570086073,-30.489673728069366L69.43413868599373,-46.59301627738247z" style="fill:rgb(85,182,234)"/><path d="M8.521910570086073,-30.489673728069366L69.89588193266206,-44.25063668593751L69.43413868599373,-46.59301627738247z" style="fill:rgb(89,159,244)"/><path d="M71.12802474945744,-39.35714758604492L10.884202229398372,-21.034764484948504L71.84945264802357,-37.000672896458255z" style="fill:rgb(106,87,246)"/><path d="M8.931402164036815,-28.169979749821476L70.46806469704039,-41.80627984073361L69.89588193266206,-44.25063668593751z" style="fill:rgb(93,135,250)"/><path d="M9.476782834754776,-25.75700064469008L71.12802474945744,-39.35714758604492L70.46806469704039,-41.80627984073361z" style="fill:rgb(99,111,250)"/><path d="M-49.71618757896372,-167.59646612338145L-63.24155311001035,-173.51245670247505L-48.221188781639995,-163.02127107009912zM-48.221188781639995,-163.02127107009912L-62.53151155913858,-169.09833425023282L-46.94722999962684,-158.3884075853393zM-51.379148140105556,-171.94905374550157L-63.58883594916229,-177.43187342598506L-49.71618757896372,-167.59646612338145zM-46.94722999962684,-158.3884075853393L-61.48624907201652,-164.3685841437044L-45.93978619988941,-153.8640415370673z" style="fill:rgb(247,158,158)"/><path d="M-46.798533582573675,-137.27873172626695L-74.3029415897235,-129.55741546930088L-72.92286913835032,-129.57922850908625z" style="fill:rgb(161,4,119)"/><path d="M-53.15080841289245,-175.92004364127067L-63.56170929676026,-180.7007838250267L-51.379148140105556,-171.94905374550157zM-45.93978619988941,-153.8640415370673L-60.14817296721538,-159.51713215816886L-45.23549740084731,-149.61084766445632zM-54.967324808849234,-179.36125134203L-63.164640933491405,-183.19342506028994L-53.15080841289245,-175.92004364127067zM-45.23549740084731,-149.61084766445632L-58.572520143044265,-154.74345875653574L-44.8610446378049,-145.78336217823255zM-56.76210237831445,-182.1403736679386L-62.417405418179,-184.8188491299516L-54.967324808849234,-179.36125134203zM-44.8610446378049,-145.78336217823255L-56.82465811770842,-150.24273572449286L-44.83220162383424,-142.5234174683883zM-58.46784631752185,-184.14589425808293L-61.35367651439746,-185.52356202546986L-56.76210237831445,-182.1403736679386zM-44.83220162383424,-142.5234174683883L-54.97678591036783,-146.19650034744365L-45.15305577349161,-139.95543605535383z" style="fill:rgb(247,158,158)"/><path d="M-74.3029415897235,-129.55741546930088L-46.798533582573675,-137.27873172626695L-48.06924272571754,-137.29169502554822z" style="fill:rgb(161,4,119)"/><path d="M-45.15305577349161,-139.95543605535383L-53.104343940146876,-142.76437163871827L-45.815410912087785,-138.18185570272541z" style="fill:rgb(247,158,158)"/><path d="M-48.06924272571754,-137.29169502554822L-75.92420742012837,-130.45733615937567L-74.3029415897235,-129.55741546930088z" style="fill:rgb(155,4,143)"/><path d="M-45.815410912087785,-138.18185570272541L-51.28243694882964,-140.07724652990558L-46.798533582573675,-137.27873172626695zM-61.35367651439746,-185.52356202546986L-58.46784631752185,-184.14589425808293L-60.018883686311746,-185.29212328072578zM-46.798533582573675,-137.27873172626695L-49.58247384230606,-138.23260712313552L-48.06924272571754,-137.29169502554822z" style="fill:rgb(247,158,158)"/><path d="M-88.75262837291328,-176.71251795424624L-61.35367651439746,-185.52356202546986L-87.58071563505703,-177.4480462109844z" style="fill:rgb(89,244,159)"/><path d="M-56.76210237831445,-182.1403736679386L-61.35367651439746,-185.52356202546986L-62.417405418179,-184.8188491299516z" style="fill:rgb(247,158,158)"/><path d="M-75.92420742012837,-130.45733615937567L-48.06924272571754,-137.29169502554822L-49.58247384230606,-138.23260712313552z" style="fill:rgb(155,4,143)"/><path d="M-54.967324808849234,-179.36125134203L-62.417405418179,-184.8188491299516L-63.164640933491405,-183.19342506028994zM-46.798533582573675,-137.27873172626695L-51.28243694882964,-140.07724652990558L-49.58247384230606,-138.23260712313552z" style="fill:rgb(247,158,158)"/><path d="M-75.92420742012837,-130.45733615937567L-51.28243694882964,-140.07724652990558L-77.72661368752614,-132.25620663317062z" style="fill:rgb(148,8,167)"/><path d="M-53.15080841289245,-175.92004364127067L-63.164640933491405,-183.19342506028994L-63.56170929676026,-180.7007838250267z" style="fill:rgb(247,158,158)"/><path d="M16.99876119312999,-167.45888717725373L-50.632788878732406,-147.5891778020495L-49.89885990820913,-147.55514608521023z" style="fill:rgb(161,4,119)"/><path d="M-51.28243694882964,-140.07724652990558L-75.92420742012837,-130.45733615937567L-49.58247384230606,-138.23260712313552z" style="fill:rgb(148,8,167)"/><path d="M-61.35367651439746,-185.52356202546986L-88.75262837291328,-176.71251795424624L-62.417405418179,-184.8188491299516z" style="fill:rgb(89,244,159)"/><path d="M-45.815410912087785,-138.18185570272541L-53.104343940146876,-142.76437163871827L-51.28243694882964,-140.07724652990558zM-51.379148140105556,-171.94905374550157L-63.56170929676026,-180.7007838250267L-63.58883594916229,-177.43187342598506zM-45.15305577349161,-139.95543605535383L-54.97678591036783,-146.19650034744365L-53.104343940146876,-142.76437163871827zM-49.71618757896372,-167.59646612338145L-63.58883594916229,-177.43187342598506L-63.24155311001035,-173.51245670247505z" style="fill:rgb(247,158,158)"/><path d="M-63.164640933491405,-183.19342506028994L-88.75262837291328,-176.71251795424624L-89.60271336761522,-175.0646949756684z" style="fill:rgb(85,234,182)"/><path d="M16.42874940878452,-167.54592353336142L-51.50216597427493,-148.1522187074719L-50.632788878732406,-147.5891778020495z" style="fill:rgb(155,4,143)"/><path d="M-44.83220162383424,-142.5234174683883L-56.82465811770842,-150.24273572449286L-54.97678591036783,-146.19650034744365z" style="fill:rgb(247,158,158)"/><path d="M-88.75262837291328,-176.71251795424624L-63.164640933491405,-183.19342506028994L-62.417405418179,-184.8188491299516z" style="fill:rgb(85,234,182)"/><path d="M-48.221188781639995,-163.02127107009912L-63.24155311001035,-173.51245670247505L-62.53151155913858,-169.09833425023282z" style="fill:rgb(247,158,158)"/><path d="M-77.72661368752614,-132.25620663317062L-53.104343940146876,-142.76437163871827L-79.64124825733438,-134.89445533186176z" style="fill:rgb(140,16,189)"/><path d="M-44.8610446378049,-145.78336217823255L-58.572520143044265,-154.74345875653574L-56.82465811770842,-150.24273572449286zM-46.94722999962684,-158.3884075853393L-62.53151155913858,-169.09833425023282L-61.48624907201652,-164.3685841437044zM-45.23549740084731,-149.61084766445632L-60.14817296721538,-159.51713215816886L-58.572520143044265,-154.74345875653574zM-45.93978619988941,-153.8640415370673L-61.48624907201652,-164.3685841437044L-60.14817296721538,-159.51713215816886z" style="fill:rgb(247,158,158)"/><path d="M-58.81380291078875,-174.69589436698564L8.838600634931712,-195.57891620804156L-58.21600493666918,-175.12336225595294z" style="fill:rgb(89,244,159)"/><path d="M-53.104343940146876,-142.76437163871827L-77.72661368752614,-132.25620663317062L-51.28243694882964,-140.07724652990558z" style="fill:rgb(140,16,189)"/><path d="M-51.50216597427493,-148.1522187074719L14.901239939785393,-169.31356766716556L-52.47433224379542,-149.2265046810784z" style="fill:rgb(148,8,167)"/><path d="M-63.56170929676026,-180.7007838250267L-89.60271336761522,-175.0646949756684L-90.09319473088267,-172.55912610958578z" style="fill:rgb(84,220,202)"/><path d="M-50.632788878732406,-147.5891778020495L16.99876119312999,-167.45888717725373L16.42874940878452,-167.54592353336142z" style="fill:rgb(161,4,119)"/><path d="M-89.60271336761522,-175.0646949756684L-63.56170929676026,-180.7007838250267L-63.164640933491405,-183.19342506028994z" style="fill:rgb(84,220,202)"/><path d="M-79.64124825733438,-134.89445533186176L-54.97678591036783,-146.19650034744365L-81.59290321547859,-138.27651884331456z" style="fill:rgb(131,29,208)"/><path d="M8.13920550068667,-194.28183648199607L-58.81380291078875,-174.69589436698564L-59.230091270315036,-173.74828943904424z" style="fill:rgb(85,234,182)"/><path d="M14.63444410482981,-184.92256018976923L8.466287770483728,-188.7651923780471L15.467639821853904,-182.2274324842605zM15.467639821853904,-182.2274324842605L8.936241641427484,-186.2381634548742L16.203812587324553,-179.50655599053528zM13.734869695887479,-187.4921356117935L8.170710375951929,-191.00395179302797L14.63444410482981,-184.92256018976923zM16.203812587324553,-179.50655599053528L9.562241742934274,-183.5230495974491L16.81583613615756,-176.86039190835893z" style="fill:rgb(247,158,158)"/><path d="M-54.97678591036783,-146.19650034744365L-79.64124825733438,-134.89445533186176L-53.104343940146876,-142.76437163871827z" style="fill:rgb(131,29,208)"/><path d="M-90.20043811004571,-169.28739978244445L-63.56170929676026,-180.7007838250267L-90.09319473088267,-172.55912610958578z" style="fill:rgb(84,202,220)"/><path d="M-52.47433224379542,-149.2265046810784L14.001301540946224,-170.93334446226834L-53.512068207142164,-150.77380568325017z" style="fill:rgb(140,16,189)"/><path d="M12.802101782027075,-189.84027930494338L8.060553042284381,-192.86669515784936L13.734869695887479,-187.4921356117935zM16.81583613615756,-176.86039190835893L10.319418841135532,-180.7282174464133L17.280969344846888,-174.38680735374354zM11.870793851520418,-191.87832365432695L8.13920550068667,-194.28183648199607L12.802101782027075,-189.84027930494338zM17.280969344846888,-174.38680735374354L11.177448173320984,-177.9653906672769L17.581616395791325,-172.1778513178995z" style="fill:rgb(247,158,158)"/><path d="M-51.50216597427493,-148.1522187074719L16.42874940878452,-167.54592353336142L15.720783658578139,-168.17083995695097z" style="fill:rgb(155,4,143)"/><path d="M10.97591995729649,-193.5279111932514L8.40240531744466,-195.19661599070326L11.870793851520418,-191.87832365432695zM17.581616395791325,-172.1778513178995L12.101903758677311,-175.34468009476663L17.70595841857096,-170.3167331303235z" style="fill:rgb(247,158,158)"/><path d="M8.060553042284381,-192.86669515784936L-59.230091270315036,-173.74828943904424L-59.44726602962044,-172.31409062213388z" style="fill:rgb(84,220,202)"/><path d="M-81.59290321547859,-138.27651884331456L-56.82465811770842,-150.24273572449286L-83.50314132745542,-142.27346282770483z" style="fill:rgb(123,46,225)"/><path d="M10.151553595213587,-194.72408140135576L8.838600634931712,-195.57891620804156L10.97591995729649,-193.5279111932514zM17.70595841857096,-170.3167331303235L13.055812921608043,-172.9697500649587L17.648448696483396,-168.87479540167638z" style="fill:rgb(247,158,158)"/><path d="M-53.512068207142164,-150.77380568325017L13.055812921608043,-172.9697500649587L-54.57502045790701,-152.73650766974984z" style="fill:rgb(131,29,208)"/><path d="M14.901239939785393,-169.31356766716556L-51.50216597427493,-148.1522187074719L15.720783658578139,-168.17083995695097z" style="fill:rgb(148,8,167)"/><path d="M8.838600634931712,-195.57891620804156L-58.81380291078875,-174.69589436698564L8.40240531744466,-195.19661599070326z" style="fill:rgb(89,244,159)"/><path d="M-59.4555326968279,-170.44692080066605L8.060553042284381,-192.86669515784936L-59.44726602962044,-172.31409062213388z" style="fill:rgb(84,202,220)"/><path d="M17.648448696483396,-168.87479540167638L14.001301540946224,-170.93334446226834L17.410127197437873,-167.90887892237862z" style="fill:rgb(247,158,158)"/><path d="M-89.91665358359016,-165.37552465529228L-63.58883594916229,-177.43187342598506L-90.20043811004571,-169.28739978244445z" style="fill:rgb(85,182,234)"/><path d="M-56.82465811770842,-150.24273572449286L-81.59290321547859,-138.27651884331456L-54.97678591036783,-146.19650034744365z" style="fill:rgb(123,46,225)"/><path d="M-63.56170929676026,-180.7007838250267L-90.20043811004571,-169.28739978244445L-63.58883594916229,-177.43187342598506z" style="fill:rgb(84,202,220)"/><path d="M17.410127197437873,-167.90887892237862L14.901239939785393,-169.31356766716556L16.99876119312999,-167.45888717725373zM8.838600634931712,-195.57891620804156L10.151553595213587,-194.72408140135576L9.429612748443555,-195.41793728225318z" style="fill:rgb(247,158,158)"/><path d="M-54.57502045790701,-152.73650766974984L12.101903758677311,-175.34468009476663L-55.62130686784138,-155.03940953594577z" style="fill:rgb(123,46,225)"/><path d="M-58.81380291078875,-174.69589436698564L8.13920550068667,-194.28183648199607L8.40240531744466,-195.19661599070326z" style="fill:rgb(85,234,182)"/><path d="M-83.50314132745542,-142.27346282770483L-58.572520143044265,-154.74345875653574L-85.29387303082429,-146.72772237328977z" style="fill:rgb(114,65,238)"/><path d="M-59.253489275273736,-168.21861703181435L8.170710375951929,-191.00395179302797L-59.4555326968279,-170.44692080066605z" style="fill:rgb(85,182,234)"/><path d="M16.99876119312999,-167.45888717725373L15.720783658578139,-168.17083995695097L16.42874940878452,-167.54592353336142zM10.97591995729649,-193.5279111932514L8.838600634931712,-195.57891620804156L8.40240531744466,-195.19661599070326z" style="fill:rgb(247,158,158)"/><path d="M14.001301540946224,-170.93334446226834L-52.47433224379542,-149.2265046810784L14.901239939785393,-169.31356766716556z" style="fill:rgb(140,16,189)"/><path d="M-55.62130686784138,-155.03940953594577L11.177448173320984,-177.9653906672769L-56.60928610268291,-157.59266226682985z" style="fill:rgb(114,65,238)"/><path d="M-62.53151155913858,-169.09833425023282L-89.91665358359016,-165.37552465529228L-89.2507673171032,-160.97898817946452z" style="fill:rgb(89,159,244)"/><path d="M11.870793851520418,-191.87832365432695L8.40240531744466,-195.19661599070326L8.13920550068667,-194.28183648199607z" style="fill:rgb(247,158,158)"/><path d="M-85.29387303082429,-146.72772237328977L-60.14817296721538,-159.51713215816886L-86.8910730255536,-151.45973620667328z" style="fill:rgb(106,87,246)"/><path d="M-58.572520143044265,-154.74345875653574L-83.50314132745542,-142.27346282770483L-56.82465811770842,-150.24273572449286z" style="fill:rgb(114,65,238)"/><path d="M-63.58883594916229,-177.43187342598506L-89.91665358359016,-165.37552465529228L-63.24155311001035,-173.51245670247505z" style="fill:rgb(85,182,234)"/><path d="M8.936241641427484,-186.2381634548742L-59.253489275273736,-168.21861703181435L-58.84837434788613,-165.71653853686158z" style="fill:rgb(89,159,244)"/><path d="M-56.60928610268291,-157.59266226682985L10.319418841135532,-180.7282174464133L-57.499380354349995,-160.29534086735248z" style="fill:rgb(106,87,246)"/><path d="M-60.14817296721538,-159.51713215816886L-88.22844562494384,-156.27612668246135L-86.8910730255536,-151.45973620667328z" style="fill:rgb(99,111,250)"/><path d="M-61.48624907201652,-164.3685841437044L-89.2507673171032,-160.97898817946452L-88.22844562494384,-156.27612668246135z" style="fill:rgb(93,135,250)"/><path d="M16.99876119312999,-167.45888717725373L14.901239939785393,-169.31356766716556L15.720783658578139,-168.17083995695097z" style="fill:rgb(247,158,158)"/><path d="M10.319418841135532,-180.7282174464133L-58.2558378193834,-163.03985869847355L-57.499380354349995,-160.29534086735248z" style="fill:rgb(99,111,250)"/><path d="M9.562241742934274,-183.5230495974491L-58.84837434788613,-165.71653853686158L-58.2558378193834,-163.03985869847355z" style="fill:rgb(93,135,250)"/><path d="M12.802101782027075,-189.84027930494338L8.13920550068667,-194.28183648199607L8.060553042284381,-192.86669515784936z" style="fill:rgb(247,158,158)"/><path d="M-59.230091270315036,-173.74828943904424L8.060553042284381,-192.86669515784936L8.13920550068667,-194.28183648199607z" style="fill:rgb(84,220,202)"/><path d="M17.410127197437873,-167.90887892237862L14.001301540946224,-170.93334446226834L14.901239939785393,-169.31356766716556z" style="fill:rgb(247,158,158)"/><path d="M13.055812921608043,-172.9697500649587L-53.512068207142164,-150.77380568325017L14.001301540946224,-170.93334446226834z" style="fill:rgb(131,29,208)"/><path d="M-89.91665358359016,-165.37552465529228L-62.53151155913858,-169.09833425023282L-63.24155311001035,-173.51245670247505z" style="fill:rgb(89,159,244)"/><path d="M13.734869695887479,-187.4921356117935L8.060553042284381,-192.86669515784936L8.170710375951929,-191.00395179302797z" style="fill:rgb(247,158,158)"/><path d="M-60.14817296721538,-159.51713215816886L-85.29387303082429,-146.72772237328977L-58.572520143044265,-154.74345875653574z" style="fill:rgb(106,87,246)"/><path d="M17.648448696483396,-168.87479540167638L13.055812921608043,-172.9697500649587L14.001301540946224,-170.93334446226834zM14.63444410482981,-184.92256018976923L8.170710375951929,-191.00395179302797L8.466287770483728,-188.7651923780471zM17.70595841857096,-170.3167331303235L12.101903758677311,-175.34468009476663L13.055812921608043,-172.9697500649587z" style="fill:rgb(247,158,158)"/><path d="M-89.2507673171032,-160.97898817946452L-61.48624907201652,-164.3685841437044L-62.53151155913858,-169.09833425023282z" style="fill:rgb(93,135,250)"/><path d="M15.467639821853904,-182.2274324842605L8.466287770483728,-188.7651923780471L8.936241641427484,-186.2381634548742z" style="fill:rgb(247,158,158)"/><path d="M-88.22844562494384,-156.27612668246135L-60.14817296721538,-159.51713215816886L-61.48624907201652,-164.3685841437044z" style="fill:rgb(99,111,250)"/><path d="M17.581616395791325,-172.1778513178995L11.177448173320984,-177.9653906672769L12.101903758677311,-175.34468009476663zM16.203812587324553,-179.50655599053528L8.936241641427484,-186.2381634548742L9.562241742934274,-183.5230495974491zM17.280969344846888,-174.38680735374354L10.319418841135532,-180.7282174464133L11.177448173320984,-177.9653906672769zM16.81583613615756,-176.86039190835893L9.562241742934274,-183.5230495974491L10.319418841135532,-180.7282174464133z" style="fill:rgb(247,158,158)"/><path d="M12.101903758677311,-175.34468009476663L-54.57502045790701,-152.73650766974984L13.055812921608043,-172.9697500649587z" style="fill:rgb(123,46,225)"/><path d="M8.060553042284381,-192.86669515784936L-59.4555326968279,-170.44692080066605L8.170710375951929,-191.00395179302797z" style="fill:rgb(84,202,220)"/><path d="M11.177448173320984,-177.9653906672769L-55.62130686784138,-155.03940953594577L12.101903758677311,-175.34468009476663z" style="fill:rgb(114,65,238)"/><path d="M8.170710375951929,-191.00395179302797L-59.253489275273736,-168.21861703181435L8.466287770483728,-188.7651923780471z" style="fill:rgb(85,182,234)"/><path d="M-59.253489275273736,-168.21861703181435L8.936241641427484,-186.2381634548742L8.466287770483728,-188.7651923780471z" style="fill:rgb(89,159,244)"/><path d="M10.319418841135532,-180.7282174464133L-56.60928610268291,-157.59266226682985L11.177448173320984,-177.9653906672769z" style="fill:rgb(106,87,246)"/><path d="M-58.84837434788613,-165.71653853686158L9.562241742934274,-183.5230495974491L8.936241641427484,-186.2381634548742z" style="fill:rgb(93,135,250)"/><path d="M-58.2558378193834,-163.03985869847355L10.319418841135532,-180.7282174464133L9.562241742934274,-183.5230495974491z" style="fill:rgb(99,111,250)"/><path d="M-19.897243691482004,164.2252844235071L9.865933634081427,157.61082320507188L-18.439754899073503,163.77892070686z" style="fill:rgb(99,250,111)"/><path d="M18.04662337889413,169.42265445766708L6.7190619982631485,178.87838367017156L19.56111884692228,173.89730136421412zM19.56111884692228,173.89730136421412L7.592160135175907,184.1745061934179L20.90148897908325,178.7429472644484zM16.411649511998363,165.48074023438966L6.173535944644896,173.80369371406377L18.04662337889413,169.42265445766708zM20.90148897908325,178.7429472644484L8.758361934140524,189.47466850864473L22.020085071787637,183.78634915588563zM14.714424981820454,162.21710518576143L5.975427532091085,169.1557195344637L16.411649511998363,165.48074023438966zM22.020085071787637,183.78634915588563L10.170036569495783,194.55983920786082L22.87652406981568,188.8476529474075zM13.016188058396732,159.75644486643242L6.129400554932807,165.11806673555068L14.714424981820454,162.21710518576143zM22.87652406981568,188.8476529474075L11.768665929372029,199.22033653334492L23.438870605760428,193.74518930502725zM11.379433722092067,158.19791230363973L6.625251444466697,161.84499571854423L13.016188058396732,159.75644486643242zM23.438870605760428,193.74518930502725L13.487786291400486,203.26608083967804L23.684705605171633,198.3006516101593z" style="fill:rgb(247,158,158)"/><path d="M9.865933634081427,157.61082320507188L-19.897243691482004,164.2252844235071L8.534568375371164,158.03061270769368z" style="fill:rgb(99,250,111)"/><path d="M9.865933634081427,157.61082320507188L7.438996723170841,159.45562211476025L11.379433722092067,158.19791230363973z" style="fill:rgb(247,158,158)"/><path d="M-21.122658064084117,165.67022550637253L8.534568375371164,158.03061270769368L-19.897243691482004,164.2252844235071z" style="fill:rgb(93,250,135)"/><path d="M23.684705605171633,198.3006516101593L15.25635539606007,206.5357353906152L23.602093482284882,202.34447307690075zM23.602093482284882,202.34447307690075L17.002271929429323,208.9037624010062L23.190365828079532,205.72146351017474zM23.190365828079532,205.72146351017474L18.65579730551173,210.28509878655052L22.460706311931318,208.29662952864768zM7.438996723170841,159.45562211476025L9.865933634081427,157.61082320507188L8.534568375371164,158.03061270769368z" style="fill:rgb(247,158,158)"/><path d="M8.534568375371164,158.03061270769368L-21.122658064084117,165.67022550637253L7.438996723170841,159.45562211476025z" style="fill:rgb(93,250,135)"/><path d="M22.460706311931318,208.29662952864768L20.15261634699269,210.63741435337545L21.436390420288117,209.96104247673156z" style="fill:rgb(247,158,158)"/><path d="M-22.06499829201705,168.07191978928955L7.438996723170841,159.45562211476025L-21.122658064084117,165.67022550637253z" style="fill:rgb(89,244,159)"/><path d="M11.379433722092067,158.19791230363973L7.438996723170841,159.45562211476025L6.625251444466697,161.84499571854423zM13.016188058396732,159.75644486643242L6.625251444466697,161.84499571854423L6.129400554932807,165.11806673555068z" style="fill:rgb(247,158,158)"/><path d="M11.29588624900463,169.14503784342187L84.80239189628028,153.23118786050532L12.050899464223495,168.87405081175916z" style="fill:rgb(99,250,111)"/><path d="M22.460706311931318,208.29662952864768L18.65579730551173,210.28509878655052L20.15261634699269,210.63741435337545z" style="fill:rgb(247,158,158)"/><path d="M-8.542018841261195,216.50030459107143L18.65579730551173,210.28509878655052L-10.160866662960562,216.1775726144827z" style="fill:rgb(148,8,167)"/><path d="M14.714424981820454,162.21710518576143L6.129400554932807,165.11806673555068L5.975427532091085,169.1557195344637z" style="fill:rgb(247,158,158)"/><path d="M18.65579730551173,210.28509878655052L-8.542018841261195,216.50030459107143L20.15261634699269,210.63741435337545z" style="fill:rgb(148,8,167)"/><path d="M7.438996723170841,159.45562211476025L-22.06499829201705,168.07191978928955L6.625251444466697,161.84499571854423z" style="fill:rgb(89,244,159)"/><path d="M23.190365828079532,205.72146351017474L17.002271929429323,208.9037624010062L18.65579730551173,210.28509878655052zM16.411649511998363,165.48074023438966L5.975427532091085,169.1557195344637L6.173535944644896,173.80369371406377z" style="fill:rgb(247,158,158)"/><path d="M10.678617151373972,169.98879259316607L84.23782088517676,153.46317843675806L11.29588624900463,169.14503784342187z" style="fill:rgb(93,250,135)"/><path d="M23.602093482284882,202.34447307690075L15.25635539606007,206.5357353906152L17.002271929429323,208.9037624010062zM18.04662337889413,169.42265445766708L6.173535944644896,173.80369371406377L6.7190619982631485,178.87838367017156z" style="fill:rgb(247,158,158)"/><path d="M6.129400554932807,165.11806673555068L-22.06499829201705,168.07191978928955L-22.68314198556235,171.349042594748z" style="fill:rgb(85,234,182)"/><path d="M23.684705605171633,198.3006516101593L13.487786291400486,203.26608083967804L15.25635539606007,206.5357353906152z" style="fill:rgb(247,158,158)"/><path d="M-22.06499829201705,168.07191978928955L6.129400554932807,165.11806673555068L6.625251444466697,161.84499571854423z" style="fill:rgb(85,234,182)"/><path d="M19.56111884692228,173.89730136421412L6.7190619982631485,178.87838367017156L7.592160135175907,184.1745061934179z" style="fill:rgb(247,158,158)"/><path d="M-10.160866662960562,216.1775726144827L17.002271929429323,208.9037624010062L-11.92500665447631,214.83109532963294z" style="fill:rgb(140,16,189)"/><path d="M23.438870605760428,193.74518930502725L11.768665929372029,199.22033653334492L13.487786291400486,203.26608083967804zM20.90148897908325,178.7429472644484L7.592160135175907,184.1745061934179L8.758361934140524,189.47466850864473zM22.87652406981568,188.8476529474075L10.170036569495783,194.55983920786082L11.768665929372029,199.22033653334492zM22.020085071787637,183.78634915588563L8.758361934140524,189.47466850864473L10.170036569495783,194.55983920786082z" style="fill:rgb(247,158,158)"/><path d="M10.22411428731326,171.3773916333963L83.81582424473095,154.2777699619679L10.678617151373972,169.98879259316607z" style="fill:rgb(89,244,159)"/><path d="M17.002271929429323,208.9037624010062L-10.160866662960562,216.1775726144827L18.65579730551173,210.28509878655052z" style="fill:rgb(140,16,189)"/><path d="M84.80239189628028,153.23118786050532L11.29588624900463,169.14503784342187L84.23782088517676,153.46317843675806z" style="fill:rgb(99,250,111)"/><path d="M17.928878732954836,199.17432315510547L90.58643486818764,183.70001389290655L17.071426682726297,198.94352271798098z" style="fill:rgb(148,8,167)"/><path d="M5.975427532091085,169.1557195344637L-22.68314198556235,171.349042594748L-22.94817391552251,175.3821179447933zM-22.68314198556235,171.349042594748L5.975427532091085,169.1557195344637L6.129400554932807,165.11806673555068z" style="fill:rgb(84,220,202)"/><path d="M-11.92500665447631,214.83109532963294L15.25635539606007,206.5357353906152L-13.765551457079873,212.50194850867595z" style="fill:rgb(131,29,208)"/><path d="M83.46362800440494,157.52593688347451L10.22411428731326,171.3773916333963L9.951409820658736,173.26104888792707z" style="fill:rgb(85,234,182)"/><path d="M88.84930084555556,160.21226492166474L84.23552646934034,165.4112225012688L89.68776763935512,162.84815105362776zM89.68776763935512,162.84815105362776L84.80938182278649,168.44804441154673L90.46235285978665,165.69776772392152zM87.97775988278474,157.887875237695L83.81023902792192,162.50369575938535L88.84930084555556,160.21226492166474zM90.46235285978665,165.69776772392152L85.50921736462597,171.49289855808775L91.14456405935282,168.65610016468753z" style="fill:rgb(247,158,158)"/><path d="M84.23782088517676,153.46317843675806L10.678617151373972,169.98879259316607L83.81582424473095,154.2777699619679z" style="fill:rgb(93,250,135)"/><path d="M15.25635539606007,206.5357353906152L-11.92500665447631,214.83109532963294L17.002271929429323,208.9037624010062z" style="fill:rgb(131,29,208)"/><path d="M-22.845304791678373,180.0170075645324L5.975427532091085,169.1557195344637L-22.94817391552251,175.3821179447933z" style="fill:rgb(84,202,220)"/><path d="M17.071426682726297,198.94352271798098L89.80831822087572,182.8356215744065L16.128594940768906,198.1315543841237z" style="fill:rgb(140,16,189)"/><path d="M87.10530813638046,155.96222897108424L83.54981184969417,159.84060629642514L87.97775988278474,157.887875237695zM91.14456405935282,168.65610016468753L86.30712591720706,174.4237058387229L91.70917736436394,171.61425982131703zM86.2644297966048,154.50906189887147L83.46362800440494,157.52593688347451L87.10530813638046,155.96222897108424zM91.70917736436394,171.61425982131703L87.17106454828172,177.12309104583568L92.13501367432254,174.46292250831888zM85.48685653107074,153.58582818307056L83.55391688520314,155.64833171933796L86.2644297966048,154.50906189887147zM92.13501367432254,174.46292250831888L88.06634535378689,179.48363120306732L92.40569409750694,177.09595942089905z" style="fill:rgb(247,158,158)"/><path d="M83.54981184969417,159.84060629642514L9.951409820658736,173.26104888792707L9.872571725103697,175.5694193898147z" style="fill:rgb(84,220,202)"/><path d="M-13.765551457079873,212.50194850867595L13.487786291400486,203.26608083967804L-15.608767251678671,209.2736631841069z" style="fill:rgb(123,46,225)"/><path d="M84.80239189628028,153.23118786050532L83.81582424473095,154.2777699619679L85.48685653107074,153.58582818307056zM92.40569409750694,177.09595942089905L88.95719838256458,181.41255096384882L92.51027460304452,179.4139199033482z" style="fill:rgb(247,158,158)"/><path d="M16.128594940768906,198.1315543841237L88.95719838256458,181.41255096384882L15.136893309959405,196.76622604971735z" style="fill:rgb(131,29,208)"/><path d="M90.58643486818764,183.70001389290655L17.928878732954836,199.17432315510547L91.26165668652975,183.97597193208549z" style="fill:rgb(148,8,167)"/><path d="M83.81582424473095,154.2777699619679L10.22411428731326,171.3773916333963L83.55391688520314,155.64833171933796z" style="fill:rgb(89,244,159)"/><path d="M9.99199778630562,178.21402039079692L83.54981184969417,159.84060629642514L9.872571725103697,175.5694193898147z" style="fill:rgb(84,202,220)"/><path d="M92.51027460304452,179.4139199033482L89.80831822087572,182.8356215744065L92.44372425316548,181.32765428174758z" style="fill:rgb(247,158,158)"/><path d="M-22.375186006774214,185.07057838483252L6.173535944644896,173.80369371406377L-22.845304791678373,180.0170075645324z" style="fill:rgb(85,182,234)"/><path d="M13.487786291400486,203.26608083967804L-13.765551457079873,212.50194850867595L15.25635539606007,206.5357353906152z" style="fill:rgb(123,46,225)"/><path d="M5.975427532091085,169.1557195344637L-22.845304791678373,180.0170075645324L6.173535944644896,173.80369371406377z" style="fill:rgb(84,202,220)"/><path d="M92.44372425316548,181.32765428174758L90.58643486818764,183.70001389290655L92.20728361202868,182.76170872505887zM83.81582424473095,154.2777699619679L84.80239189628028,153.23118786050532L84.23782088517676,153.46317843675806z" style="fill:rgb(247,158,158)"/><path d="M15.136893309959405,196.76622604971735L88.06634535378689,179.48363120306732L14.135305089972968,194.89814303775552z" style="fill:rgb(123,46,225)"/><path d="M10.22411428731326,171.3773916333963L83.46362800440494,157.52593688347451L83.55391688520314,155.64833171933796z" style="fill:rgb(85,234,182)"/><path d="M-15.608767251678671,209.2736631841069L11.768665929372029,199.22033653334492L-17.379357126853346,205.27015330898826z" style="fill:rgb(114,65,238)"/><path d="M10.306027055634788,181.09156905771687L83.81023902792192,162.50369575938535L9.99199778630562,178.21402039079692z" style="fill:rgb(85,182,234)"/><path d="M92.20728361202868,182.76170872505887L91.26165668652975,183.97597193208549L91.80860579371875,183.65747653442926zM85.48685653107074,153.58582818307056L83.81582424473095,154.2777699619679L83.55391688520314,155.64833171933796z" style="fill:rgb(247,158,158)"/><path d="M89.80831822087572,182.8356215744065L17.071426682726297,198.94352271798098L90.58643486818764,183.70001389290655z" style="fill:rgb(140,16,189)"/><path d="M14.135305089972968,194.89814303775552L87.17106454828172,177.12309104583568L13.163660857380725,192.5991276820616z" style="fill:rgb(114,65,238)"/><path d="M7.592160135175907,184.1745061934179L-22.375186006774214,185.07057838483252L-21.55443124246668,190.33844392321822z" style="fill:rgb(89,159,244)"/><path d="M86.2644297966048,154.50906189887147L83.55391688520314,155.64833171933796L83.46362800440494,157.52593688347451z" style="fill:rgb(247,158,158)"/><path d="M-17.379357126853346,205.27015330898826L10.170036569495783,194.55983920786082L-19.00404572520068,200.65098252323685z" style="fill:rgb(106,87,246)"/><path d="M11.768665929372029,199.22033653334492L-15.608767251678671,209.2736631841069L13.487786291400486,203.26608083967804z" style="fill:rgb(114,65,238)"/><path d="M6.173535944644896,173.80369371406377L-22.375186006774214,185.07057838483252L6.7190619982631485,178.87838367017156z" style="fill:rgb(85,182,234)"/><path d="M84.80938182278649,168.44804441154673L10.306027055634788,181.09156905771687L10.802934462129087,184.08812912866367z" style="fill:rgb(89,159,244)"/><path d="M13.163660857380725,192.5991276820616L86.30712591720706,174.4237058387229L12.260899568012555,189.95946303878125z" style="fill:rgb(106,87,246)"/><path d="M10.170036569495783,194.55983920786082L-20.415236010306987,195.60439895411244L-19.00404572520068,200.65098252323685z" style="fill:rgb(99,111,250)"/><path d="M8.758361934140524,189.47466850864473L-21.55443124246668,190.33844392321822L-20.415236010306987,195.60439895411244z" style="fill:rgb(93,135,250)"/><path d="M92.20728361202868,182.76170872505887L90.58643486818764,183.70001389290655L91.26165668652975,183.97597193208549z" style="fill:rgb(247,158,158)"/><path d="M86.30712591720706,174.4237058387229L11.463319191220428,187.08410688825577L12.260899568012555,189.95946303878125z" style="fill:rgb(99,111,250)"/><path d="M85.50921736462597,171.49289855808775L10.802934462129087,184.08812912866367L11.463319191220428,187.08410688825577z" style="fill:rgb(93,135,250)"/><path d="M87.10530813638046,155.96222897108424L83.46362800440494,157.52593688347451L83.54981184969417,159.84060629642514z" style="fill:rgb(247,158,158)"/><path d="M9.951409820658736,173.26104888792707L83.54981184969417,159.84060629642514L83.46362800440494,157.52593688347451z" style="fill:rgb(84,220,202)"/><path d="M92.44372425316548,181.32765428174758L89.80831822087572,182.8356215744065L90.58643486818764,183.70001389290655z" style="fill:rgb(247,158,158)"/><path d="M-22.375186006774214,185.07057838483252L7.592160135175907,184.1745061934179L6.7190619982631485,178.87838367017156z" style="fill:rgb(89,159,244)"/><path d="M88.95719838256458,181.41255096384882L16.128594940768906,198.1315543841237L89.80831822087572,182.8356215744065z" style="fill:rgb(131,29,208)"/><path d="M87.97775988278474,157.887875237695L83.54981184969417,159.84060629642514L83.81023902792192,162.50369575938535z" style="fill:rgb(247,158,158)"/><path d="M10.170036569495783,194.55983920786082L-17.379357126853346,205.27015330898826L11.768665929372029,199.22033653334492z" style="fill:rgb(106,87,246)"/><path d="M92.51027460304452,179.4139199033482L88.95719838256458,181.41255096384882L89.80831822087572,182.8356215744065zM88.84930084555556,160.21226492166474L83.81023902792192,162.50369575938535L84.23552646934034,165.4112225012688zM92.40569409750694,177.09595942089905L88.06634535378689,179.48363120306732L88.95719838256458,181.41255096384882z" style="fill:rgb(247,158,158)"/><path d="M-21.55443124246668,190.33844392321822L8.758361934140524,189.47466850864473L7.592160135175907,184.1745061934179z" style="fill:rgb(93,135,250)"/><path d="M89.68776763935512,162.84815105362776L84.23552646934034,165.4112225012688L84.80938182278649,168.44804441154673z" style="fill:rgb(247,158,158)"/><path d="M-20.415236010306987,195.60439895411244L10.170036569495783,194.55983920786082L8.758361934140524,189.47466850864473z" style="fill:rgb(99,111,250)"/><path d="M92.13501367432254,174.46292250831888L87.17106454828172,177.12309104583568L88.06634535378689,179.48363120306732zM90.46235285978665,165.69776772392152L84.80938182278649,168.44804441154673L85.50921736462597,171.49289855808775zM91.70917736436394,171.61425982131703L86.30712591720706,174.4237058387229L87.17106454828172,177.12309104583568zM91.14456405935282,168.65610016468753L85.50921736462597,171.49289855808775L86.30712591720706,174.4237058387229z" style="fill:rgb(247,158,158)"/><path d="M88.06634535378689,179.48363120306732L15.136893309959405,196.76622604971735L88.95719838256458,181.41255096384882z" style="fill:rgb(123,46,225)"/><path d="M83.54981184969417,159.84060629642514L9.99199778630562,178.21402039079692L83.81023902792192,162.50369575938535z" style="fill:rgb(84,202,220)"/><path d="M87.17106454828172,177.12309104583568L14.135305089972968,194.89814303775552L88.06634535378689,179.48363120306732z" style="fill:rgb(114,65,238)"/><path d="M83.81023902792192,162.50369575938535L10.306027055634788,181.09156905771687L84.23552646934034,165.4112225012688z" style="fill:rgb(85,182,234)"/><path d="M10.306027055634788,181.09156905771687L84.80938182278649,168.44804441154673L84.23552646934034,165.4112225012688z" style="fill:rgb(89,159,244)"/><path d="M86.30712591720706,174.4237058387229L13.163660857380725,192.5991276820616L87.17106454828172,177.12309104583568z" style="fill:rgb(106,87,246)"/><path d="M10.802934462129087,184.08812912866367L85.50921736462597,171.49289855808775L84.80938182278649,168.44804441154673z" style="fill:rgb(93,135,250)"/><path d="M11.463319191220428,187.08410688825577L86.30712591720706,174.4237058387229L85.50921736462597,171.49289855808775z" style="fill:rgb(99,111,250)"/><path d="M-59.43581145211972,41.19413551513197L-56.62746201316973,52.55111991233115L-57.86157393721099,46.829237362898134zM-56.62746201316973,52.55111991233115L-59.43581145211972,41.19413551513197L-61.294994882676285,35.844769834438615zM-56.62746201316973,52.55111991233115L-61.294994882676285,35.844769834438615L-55.7777944940178,58.15782723250657zM-55.7777944940178,58.15782723250657L-61.294994882676285,35.844769834438615L-63.374428366918536,30.971966217141677zM-55.7777944940178,58.15782723250657L-63.374428366918536,30.971966217141677L-55.344749223916565,63.44960879620312zM-55.344749223916565,63.44960879620312L-63.374428366918536,30.971966217141677L-65.60144124038254,26.75320004497417zM-55.344749223916565,63.44960879620312L-65.60144124038254,26.75320004497417L-55.34723079066372,68.23434626930678zM-55.34723079066372,68.23434626930678L-65.60144124038254,26.75320004497417L-67.89714679970697,23.347254872890062zM-55.34723079066372,68.23434626930678L-67.89714679970697,23.347254872890062L-55.789866020922055,72.33322847331226zM-55.789866020922055,72.33322847331226L-67.89714679970697,23.347254872890062L-70.17848746422224,20.888711893866898zM-55.789866020922055,72.33322847331226L-70.17848746422224,20.888711893866898L-56.66214930735808,75.58678724224089zM-56.66214930735808,75.58678724224089L-70.17848746422224,20.888711893866898L-72.36062527367517,19.482363994205812zM-56.66214930735808,75.58678724224089L-72.36062527367517,19.482363994205812L-57.937953825952285,77.86115755058327z" style="fill:rgb(247,158,158)"/><path d="M-108.45374543520063,28.38930183681613L-74.35974139724155,19.197827693845486L-106.55129278381823,27.483186314069552z" style="fill:rgb(93,250,135)"/><path d="M-57.937953825952285,77.86115755058327L-72.36062527367517,19.482363994205812L-74.35974139724155,19.197827693845486z" style="fill:rgb(247,158,158)"/><path d="M-59.5754444401827,79.0544010471978L-94.0508710756613,86.95970173159185L-91.9442340398657,86.86852341055038z" style="fill:rgb(155,4,143)"/><path d="M-57.937953825952285,77.86115755058327L-74.35974139724155,19.197827693845486L-59.5754444401827,79.0544010471978z" style="fill:rgb(247,158,158)"/><path d="M-74.35974139724155,19.197827693845486L-108.45374543520063,28.38930183681613L-76.09618748439652,20.06463678742821z" style="fill:rgb(93,250,135)"/><path d="M-110.02014180726881,30.421935224223947L-76.09618748439652,20.06463678742821L-108.45374543520063,28.38930183681613z" style="fill:rgb(89,244,159)"/><path d="M-59.5754444401827,79.0544010471978L-74.35974139724155,19.197827693845486L-76.09618748439652,20.06463678742821z" style="fill:rgb(247,158,158)"/><path d="M-94.0508710756613,86.95970173159185L-59.5754444401827,79.0544010471978L-61.51757092949795,79.1024230674225z" style="fill:rgb(155,4,143)"/><path d="M-59.5754444401827,79.0544010471978L-76.09618748439652,20.06463678742821L-61.51757092949795,79.1024230674225zM19.182600904126044,24.057428854262703L20.855411410545628,30.755120841210235L20.09474326855068,27.387057480259156zM20.855411410545628,30.755120841210235L19.182600904126044,24.057428854262703L18.152249043391635,20.888048163654712z" style="fill:rgb(247,158,158)"/><path d="M-94.0508710756613,86.95970173159185L-63.69335056416264,77.98420390340664L-96.38291541110334,85.89270541567292z" style="fill:rgb(148,8,167)"/><path d="M20.855411410545628,30.755120841210235L18.152249043391635,20.888048163654712L21.436577289907397,34.03839380237752z" style="fill:rgb(247,158,158)"/><path d="M-63.69335056416264,77.98420390340664L-94.0508710756613,86.95970173159185L-61.51757092949795,79.1024230674225z" style="fill:rgb(148,8,167)"/><path d="M-76.09618748439652,20.06463678742821L-110.02014180726881,30.421935224223947L-77.49786232797291,22.068355905788906z" style="fill:rgb(89,244,159)"/><path d="M21.436577289907397,34.03839380237752L18.152249043391635,20.888048163654712L17.041178514147816,17.995544201156797zM21.436577289907397,34.03839380237752L17.041178514147816,17.995544201156797L21.816351184734675,37.116068736720244zM-61.51757092949795,79.1024230674225L-76.09618748439652,20.06463678742821L-77.49786232797291,22.068355905788906zM21.816351184734675,37.116068736720244L17.041178514147816,17.995544201156797L15.889969415030826,15.487630990118813z" style="fill:rgb(247,158,158)"/><path d="M-72.17619567579722,32.54173197298424L11.730598723866912,10.946952844034872L-71.19613094041593,32.00620214815705z" style="fill:rgb(93,250,135)"/><path d="M-78.5038046576686,25.148217019124395L-110.02014180726881,30.421935224223947L-111.18300218963712,33.51886709532604z" style="fill:rgb(85,234,182)"/><path d="M21.816351184734675,37.116068736720244L15.889969415030826,15.487630990118813L21.97975449489668,39.87360995516091z" style="fill:rgb(247,158,158)"/><path d="M20.441832487586126,45.84293567656985L-63.86481570311335,66.19618535255383L-62.747967591305034,66.20994003976031z" style="fill:rgb(155,4,143)"/><path d="M-110.02014180726881,30.421935224223947L-78.5038046576686,25.148217019124395L-77.49786232797291,22.068355905788906z" style="fill:rgb(85,234,182)"/><path d="M-61.51757092949795,79.1024230674225L-77.49786232797291,22.068355905788906L-63.69335056416264,77.98420390340664zM21.97975449489668,39.87360995516091L15.889969415030826,15.487630990118813L14.741039585659053,13.459494600456678z" style="fill:rgb(247,158,158)"/><path d="M-96.38291541110334,85.89270541567292L-66.01994562033502,75.72549754224467L-98.85117513613248,83.69154619237077z" style="fill:rgb(140,16,189)"/><path d="M21.97975449489668,39.87360995516091L14.741039585659053,13.459494600456678L21.919349495441317,42.20657805015264z" style="fill:rgb(247,158,158)"/><path d="M-72.96139858077238,33.72067596377141L11.002454933269162,11.424507565491655L-72.17619567579722,32.54173197298424z" style="fill:rgb(89,244,159)"/><path d="M-66.01994562033502,75.72549754224467L-96.38291541110334,85.89270541567292L-63.69335056416264,77.98420390340664z" style="fill:rgb(140,16,189)"/><path d="M21.919349495441317,42.20657805015264L14.741039585659053,13.459494600456678L13.637295283311586,11.990332390931597zM-63.69335056416264,77.98420390340664L-77.49786232797291,22.068355905788906L-78.5038046576686,25.148217019124395z" style="fill:rgb(247,158,158)"/><path d="M-63.86481570311335,66.19618535255383L18.564531333750487,45.00880063200147L-65.10898621013914,65.52086144113387z" style="fill:rgb(148,8,167)"/><path d="M-79.06752501261923,29.19682209773672L-111.18300218963712,33.51886709532604L-111.88951789194275,37.57174543152711z" style="fill:rgb(84,220,202)"/><path d="M21.919349495441317,42.20657805015264L13.637295283311586,11.990332390931597L21.635679679358322,44.02441358357473z" style="fill:rgb(247,158,158)"/><path d="M-111.18300218963712,33.51886709532604L-79.06752501261923,29.19682209773672L-78.5038046576686,25.148217019124395z" style="fill:rgb(84,220,202)"/><path d="M-98.85117513613248,83.69154619237077L-68.4056592980938,72.40065642328835L-101.35805444204587,80.42844599081106z" style="fill:rgb(131,29,208)"/><path d="M-63.69335056416264,77.98420390340664L-78.5038046576686,25.148217019124395L-66.01994562033502,75.72549754224467z" style="fill:rgb(247,158,158)"/><path d="M10.144124602162794,14.317802468761919L-72.96139858077238,33.72067596377141L-73.51925396024868,35.50291277489865z" style="fill:rgb(85,234,182)"/><path d="M21.635679679358322,44.02441358357473L13.637295283311586,11.990332390931597L12.62067005403641,11.140148955408412z" style="fill:rgb(247,158,158)"/><path d="M11.730598723866912,10.946952844034872L-72.17619567579722,32.54173197298424L11.002454933269162,11.424507565491655z" style="fill:rgb(93,250,135)"/><path d="M-68.4056592980938,72.40065642328835L-98.85117513613248,83.69154619237077L-66.01994562033502,75.72549754224467z" style="fill:rgb(131,29,208)"/><path d="M-112.10479740403754,42.42843918957798L-79.06752501261923,29.19682209773672L-111.88951789194275,37.57174543152711z" style="fill:rgb(84,202,220)"/><path d="M-65.10898621013914,65.52086144113387L17.45324675773797,43.60565154084902L-66.43285343471507,64.20441238594489z" style="fill:rgb(140,16,189)"/><path d="M-63.86481570311335,66.19618535255383L20.441832487586126,45.84293567656985L19.573481705305813,45.76232947614133z" style="fill:rgb(155,4,143)"/><path d="M21.635679679358322,44.02441358357473L12.62067005403641,11.140148955408412L21.13751605575177,45.25399447871557zM-66.01994562033502,75.72549754224467L-78.5038046576686,25.148217019124395L-79.06752501261923,29.19682209773672z" style="fill:rgb(247,158,158)"/><path d="M10.051323814971559,16.63149999639362L-73.51925396024868,35.50291277489865L-73.82578860470127,37.823376463440674z" style="fill:rgb(84,220,202)"/><path d="M-101.35805444204587,80.42844599081106L-70.75374616947529,68.13186650071552L-103.80162351532333,76.22314839030798z" style="fill:rgb(123,46,225)"/><path d="M-66.43285343471507,64.20441238594489L16.2827083139086,41.60283175938281L-67.78475596471405,62.29351364282239z" style="fill:rgb(131,29,208)"/><path d="M21.13751605575177,45.25399447871557L12.62067005403641,11.140148955408412L11.730598723866912,10.946952844034872z" style="fill:rgb(247,158,158)"/><path d="M18.564531333750487,45.00880063200147L-63.86481570311335,66.19618535255383L19.573481705305813,45.76232947614133z" style="fill:rgb(148,8,167)"/><path d="M11.002454933269162,11.424507565491655L-72.96139858077238,33.72067596377141L10.466031144814592,12.560857821628538z" style="fill:rgb(89,244,159)"/><path d="M-73.86690963135379,40.594008220394414L10.051323814971559,16.63149999639362L-73.82578860470127,37.823376463440674z" style="fill:rgb(84,202,220)"/><path d="M-111.81450883009497,47.898135731537316L-79.16011210375264,34.062412723817594L-112.10479740403754,42.42843918957798z" style="fill:rgb(85,182,234)"/><path d="M-66.01994562033502,75.72549754224467L-79.06752501261923,29.19682209773672L-68.4056592980938,72.40065642328835z" style="fill:rgb(247,158,158)"/><path d="M-70.75374616947529,68.13186650071552L-101.35805444204587,80.42844599081106L-68.4056592980938,72.40065642328835z" style="fill:rgb(123,46,225)"/><path d="M-79.06752501261923,29.19682209773672L-112.10479740403754,42.42843918957798L-79.16011210375264,34.062412723817594z" style="fill:rgb(84,202,220)"/><path d="M21.13751605575177,45.25399447871557L11.730598723866912,10.946952844034872L20.441832487586126,45.84293567656985z" style="fill:rgb(247,158,158)"/><path d="M-67.78475596471405,62.29351364282239L15.099106840239804,39.07567233518726L-69.11108032366009,59.85992179749493z" style="fill:rgb(123,46,225)"/><path d="M-72.96139858077238,33.72067596377141L10.144124602162794,14.317802468761919L10.466031144814592,12.560857821628538z" style="fill:rgb(85,234,182)"/><path d="M-103.80162351532333,76.22314839030798L-72.96689603131294,63.085463839795814L-106.08042040438615,71.23939400653819z" style="fill:rgb(114,65,238)"/><path d="M-73.6392778953217,43.70691789698952L10.19310885803081,19.414324129433698L-73.86690963135379,40.594008220394414z" style="fill:rgb(85,182,234)"/><path d="M-68.4056592980938,72.40065642328835L-79.06752501261923,29.19682209773672L-79.16011210375264,34.062412723817594zM20.441832487586126,45.84293567656985L11.730598723866912,10.946952844034872L11.002454933269162,11.424507565491655z" style="fill:rgb(247,158,158)"/><path d="M17.45324675773797,43.60565154084902L-65.10898621013914,65.52086144113387L18.564531333750487,45.00880063200147z" style="fill:rgb(140,16,189)"/><path d="M-69.11108032366009,59.85992179749493L13.949793930968502,36.12229073367555L-70.35856971354274,56.997981581197095z" style="fill:rgb(114,65,238)"/><path d="M-77.91646360880547,45.44885497705011L-111.81450883009497,47.898135731537316L-111.02639363342014,53.759211787555294z" style="fill:rgb(89,159,244)"/><path d="M-106.08042040438615,71.23939400653819L-74.95205838464675,57.465339263489376L-108.09853090940881,65.67836439389333z" style="fill:rgb(106,87,246)"/><path d="M-72.96689603131294,63.085463839795814L-103.80162351532333,76.22314839030798L-70.75374616947529,68.13186650071552z" style="fill:rgb(114,65,238)"/><path d="M-79.16011210375264,34.062412723817594L-111.81450883009497,47.898135731537316L-78.77242333538193,39.55392914828023z" style="fill:rgb(85,182,234)"/><path d="M11.154167193907037,25.93793850307244L-73.6392778953217,43.70691789698952L-73.1507515983713,47.038757928759765z" style="fill:rgb(89,159,244)"/><path d="M20.441832487586126,45.84293567656985L11.002454933269162,11.424507565491655L19.573481705305813,45.76232947614133z" style="fill:rgb(247,158,158)"/><path d="M-70.35856971354274,56.997981581197095L12.881171698617178,32.8596660678628L-71.47673501325022,53.82092101671014z" style="fill:rgb(106,87,246)"/><path d="M-68.4056592980938,72.40065642328835L-79.16011210375264,34.062412723817594L-70.75374616947529,68.13186650071552z" style="fill:rgb(247,158,158)"/><path d="M-74.95205838464675,57.465339263489376L-109.77059888131689,59.76951559861943L-108.09853090940881,65.67836439389333z" style="fill:rgb(99,111,250)"/><path d="M-76.62533840485285,51.5035513493479L-111.02639363342014,53.759211787555294L-109.77059888131689,59.76951559861943z" style="fill:rgb(93,135,250)"/><path d="M12.881171698617178,32.8596660678628L-72.42017849907344,50.45598936488081L-71.47673501325022,53.82092101671014z" style="fill:rgb(99,111,250)"/><path d="M11.936559380676606,29.418619374187774L-73.1507515983713,47.038757928759765L-72.42017849907344,50.45598936488081z" style="fill:rgb(93,135,250)"/><path d="M-73.51925396024868,35.50291277489865L10.051323814971559,16.63149999639362L10.144124602162794,14.317802468761919z" style="fill:rgb(84,220,202)"/><path d="M-111.81450883009497,47.898135731537316L-77.91646360880547,45.44885497705011L-78.77242333538193,39.55392914828023z" style="fill:rgb(89,159,244)"/><path d="M16.2827083139086,41.60283175938281L-66.43285343471507,64.20441238594489L17.45324675773797,43.60565154084902z" style="fill:rgb(131,29,208)"/><path d="M19.573481705305813,45.76232947614133L11.002454933269162,11.424507565491655L10.466031144814592,12.560857821628538zM-70.75374616947529,68.13186650071552L-79.16011210375264,34.062412723817594L-78.77242333538193,39.55392914828023z" style="fill:rgb(247,158,158)"/><path d="M-74.95205838464675,57.465339263489376L-106.08042040438615,71.23939400653819L-72.96689603131294,63.085463839795814z" style="fill:rgb(106,87,246)"/><path d="M-111.02639363342014,53.759211787555294L-76.62533840485285,51.5035513493479L-77.91646360880547,45.44885497705011z" style="fill:rgb(93,135,250)"/><path d="M-70.75374616947529,68.13186650071552L-78.77242333538193,39.55392914828023L-72.96689603131294,63.085463839795814z" style="fill:rgb(247,158,158)"/><path d="M-109.77059888131689,59.76951559861943L-74.95205838464675,57.465339263489376L-76.62533840485285,51.5035513493479z" style="fill:rgb(99,111,250)"/><path d="M19.573481705305813,45.76232947614133L10.466031144814592,12.560857821628538L18.564531333750487,45.00880063200147z" style="fill:rgb(247,158,158)"/><path d="M15.099106840239804,39.07567233518726L-67.78475596471405,62.29351364282239L16.2827083139086,41.60283175938281z" style="fill:rgb(123,46,225)"/><path d="M10.051323814971559,16.63149999639362L-73.86690963135379,40.594008220394414L10.19310885803081,19.414324129433698z" style="fill:rgb(84,202,220)"/><path d="M-72.96689603131294,63.085463839795814L-78.77242333538193,39.55392914828023L-77.91646360880547,45.44885497705011zM18.564531333750487,45.00880063200147L10.466031144814592,12.560857821628538L10.144124602162794,14.317802468761919zM-72.96689603131294,63.085463839795814L-77.91646360880547,45.44885497705011L-74.95205838464675,57.465339263489376z" style="fill:rgb(247,158,158)"/><path d="M13.949793930968502,36.12229073367555L-69.11108032366009,59.85992179749493L15.099106840239804,39.07567233518726z" style="fill:rgb(114,65,238)"/><path d="M10.19310885803081,19.414324129433698L-73.6392778953217,43.70691789698952L10.565331300675728,22.557997928191686z" style="fill:rgb(85,182,234)"/><path d="M-74.95205838464675,57.465339263489376L-77.91646360880547,45.44885497705011L-76.62533840485285,51.5035513493479zM18.564531333750487,45.00880063200147L10.144124602162794,14.317802468761919L17.45324675773797,43.60565154084902z" style="fill:rgb(247,158,158)"/><path d="M-73.6392778953217,43.70691789698952L11.154167193907037,25.93793850307244L10.565331300675728,22.557997928191686z" style="fill:rgb(89,159,244)"/><path d="M12.881171698617178,32.8596660678628L-70.35856971354274,56.997981581197095L13.949793930968502,36.12229073367555z" style="fill:rgb(106,87,246)"/><path d="M-73.1507515983713,47.038757928759765L11.936559380676606,29.418619374187774L11.154167193907037,25.93793850307244z" style="fill:rgb(93,135,250)"/><path d="M-72.42017849907344,50.45598936488081L12.881171698617178,32.8596660678628L11.936559380676606,29.418619374187774z" style="fill:rgb(99,111,250)"/><path d="M17.45324675773797,43.60565154084902L10.144124602162794,14.317802468761919L10.051323814971559,16.63149999639362zM17.45324675773797,43.60565154084902L10.051323814971559,16.63149999639362L16.2827083139086,41.60283175938281zM16.2827083139086,41.60283175938281L10.051323814971559,16.63149999639362L10.19310885803081,19.414324129433698zM16.2827083139086,41.60283175938281L10.19310885803081,19.414324129433698L15.099106840239804,39.07567233518726zM15.099106840239804,39.07567233518726L10.19310885803081,19.414324129433698L10.565331300675728,22.557997928191686zM15.099106840239804,39.07567233518726L10.565331300675728,22.557997928191686L13.949793930968502,36.12229073367555zM13.949793930968502,36.12229073367555L10.565331300675728,22.557997928191686L11.154167193907037,25.93793850307244zM13.949793930968502,36.12229073367555L11.154167193907037,25.93793850307244L12.881171698617178,32.8596660678628zM12.881171698617178,32.8596660678628L11.154167193907037,25.93793850307244L11.936559380676606,29.418619374187774z" style="fill:rgb(247,158,158)"/></svg>
